<svg width="173" height="29" viewBox="0 0 173 29" fill="none" xmlns="http://www.w3.org/2000/svg">
<path d="M9.85972 28.1174C8.40287 28.1174 7.10212 27.9408 5.95746 27.5878C4.8128 27.2095 3.83724 26.7178 3.03077 26.1126C2.25032 25.5074 1.63896 24.8265 1.19671 24.07C0.780468 23.2882 0.55934 22.4813 0.533325 21.6491C0.533325 21.4221 0.61137 21.2456 0.767461 21.1195C0.923551 20.9934 1.11866 20.9304 1.3528 20.9304H1.89911C2.10724 20.9304 2.30235 20.9808 2.48445 21.0817C2.69257 21.1826 2.84866 21.4221 2.95272 21.8004C3.23889 22.8847 3.74618 23.7295 4.4746 24.3347C5.22904 24.9147 6.07453 25.3182 7.01107 25.5452C7.97363 25.7469 8.92317 25.8478 9.85972 25.8478C11.8629 25.8478 13.5018 25.3813 14.7766 24.4482C16.0773 23.5152 16.7277 22.1156 16.7277 20.2495C16.7277 18.3834 16.1423 17.0469 14.9717 16.24C13.827 15.433 12.2531 15.0295 10.2499 15.0295H6.81596C6.55581 15.0295 6.34769 14.9539 6.1916 14.8026C6.03551 14.6513 5.95746 14.4495 5.95746 14.1974V13.63C5.95746 13.4282 5.98348 13.2643 6.03551 13.1382C6.11355 12.9869 6.2046 12.8482 6.30866 12.7221L14.3473 3.5304H2.5625C2.30235 3.5304 2.09423 3.45474 1.93814 3.30344C1.78205 3.15213 1.704 2.9504 1.704 2.69822V2.13083C1.704 1.85344 1.78205 1.63909 1.93814 1.48779C2.09423 1.33648 2.30235 1.26083 2.5625 1.26083H17.1179C17.4041 1.26083 17.6252 1.33648 17.7813 1.48779C17.9374 1.63909 18.0154 1.85344 18.0154 2.13083V2.69822C18.0154 2.84953 17.9764 2.98822 17.8984 3.11431C17.8463 3.21518 17.7813 3.31605 17.7033 3.41692L9.46949 12.76H10.2499C12.045 12.76 13.6059 13.0374 14.9326 13.5921C16.2854 14.1217 17.326 14.9413 18.0545 16.0508C18.8089 17.1604 19.1861 18.56 19.1861 20.2495C19.1861 21.9139 18.7829 23.3387 17.9764 24.5239C17.1699 25.6839 16.0643 26.5791 14.6595 27.2095C13.2547 27.8147 11.6548 28.1174 9.85972 28.1174ZM25.7096 27.7391C25.4495 27.7391 25.2414 27.6634 25.0853 27.5121C24.9292 27.3608 24.8511 27.1591 24.8511 26.9069V2.13083C24.8511 1.85344 24.9292 1.63909 25.0853 1.48779C25.2414 1.33648 25.4495 1.26083 25.7096 1.26083H34.0214C36.779 1.26083 38.9383 1.6517 40.4992 2.43344C42.0601 3.21518 43.1657 4.37518 43.8161 5.91344C44.4925 7.42648 44.8437 9.27996 44.8697 11.4739C44.8957 12.6087 44.9087 13.6174 44.9087 14.5C44.9087 15.3574 44.8957 16.3534 44.8697 17.4882C44.8177 19.8082 44.4665 21.7247 43.8161 23.2378C43.1657 24.7508 42.0731 25.8856 40.5382 26.6421C39.0033 27.3734 36.8961 27.7391 34.2166 27.7391H25.7096ZM27.3096 25.4695H34.0214C36.1026 25.4695 37.7416 25.2047 38.9383 24.6752C40.161 24.1204 41.0325 23.2504 41.5528 22.0652C42.0991 20.8547 42.3853 19.266 42.4113 17.2991C42.4373 16.5426 42.4503 15.8869 42.4503 15.3321C42.4503 14.7521 42.4503 14.1847 42.4503 13.63C42.4503 13.0752 42.4373 12.4195 42.4113 11.663C42.3593 8.88909 41.6959 6.84648 40.4211 5.53518C39.1464 4.19866 36.9481 3.5304 33.8263 3.5304H27.3096V25.4695ZM60.5083 28.1174C57.9068 28.1174 55.7475 27.7643 54.0305 27.0582C52.3135 26.3269 51.0128 25.3813 50.1283 24.2213C49.2438 23.0613 48.7755 21.8256 48.7235 20.5143C48.7235 20.3126 48.8015 20.136 48.9576 19.9847C49.1397 19.8082 49.3478 19.72 49.582 19.72H54.4988C54.863 19.72 55.1362 19.783 55.3183 19.9091C55.5264 20.0352 55.7085 20.1991 55.8646 20.4008C56.0727 20.7791 56.3589 21.1447 56.7231 21.4978C57.1133 21.8508 57.6076 22.1408 58.2059 22.3678C58.8303 22.5695 59.5977 22.6704 60.5083 22.6704C62.0171 22.6704 63.1488 22.4434 63.9032 21.9895C64.6837 21.5356 65.0739 20.9178 65.0739 20.136C65.0739 19.5813 64.8658 19.1274 64.4495 18.7743C64.0333 18.3961 63.3569 18.0682 62.4204 17.7908C61.5098 17.4882 60.2871 17.1856 58.7523 16.883C56.7751 16.4795 55.0841 15.9626 53.6793 15.3321C52.3005 14.6765 51.2469 13.8317 50.5185 12.7978C49.7901 11.7387 49.4259 10.4274 49.4259 8.86387C49.4259 7.32561 49.8681 5.95127 50.7526 4.74083C51.6632 3.5304 52.9249 2.58474 54.5378 1.90387C56.1507 1.223 58.0628 0.882568 60.2741 0.882568C62.0692 0.882568 63.6431 1.10952 64.9959 1.56344C66.3747 2.01735 67.5323 2.62257 68.4689 3.37909C69.4054 4.13561 70.1078 4.94257 70.5761 5.79996C71.0704 6.63214 71.3305 7.4517 71.3565 8.25866C71.3565 8.4604 71.2785 8.64953 71.1224 8.82605C70.9663 8.97735 70.7712 9.053 70.5371 9.053H65.3861C65.0999 9.053 64.8528 9.00257 64.6447 8.9017C64.4365 8.80083 64.2544 8.63692 64.0983 8.40996C63.9423 7.85518 63.526 7.37605 62.8496 6.97257C62.1992 6.54387 61.3407 6.32953 60.2741 6.32953C59.1295 6.32953 58.2319 6.53127 57.5816 6.93474C56.9572 7.313 56.645 7.90561 56.645 8.71257C56.645 9.21692 56.8141 9.65822 57.1523 10.0365C57.5165 10.4147 58.1019 10.7426 58.9083 11.02C59.7408 11.2974 60.8725 11.5874 62.3033 11.89C64.6707 12.3187 66.5828 12.8608 68.0396 13.5165C69.4965 14.1469 70.5631 14.9791 71.2395 16.013C71.9159 17.0217 72.2541 18.2952 72.2541 19.8334C72.2541 21.5482 71.7468 23.036 70.7322 24.2969C69.7436 25.5326 68.3648 26.4782 66.5958 27.1339C64.8268 27.7895 62.7976 28.1174 60.5083 28.1174ZM86.1114 27.7391C84.4464 27.7391 83.0026 27.4869 81.7799 26.9826C80.5832 26.453 79.6596 25.646 79.0092 24.5617C78.3589 23.4521 78.0337 22.0274 78.0337 20.2874V13.0247H74.9899C74.7038 13.0247 74.4566 12.9365 74.2485 12.76C74.0664 12.5834 73.9753 12.3565 73.9753 12.0791V9.01518C73.9753 8.73779 74.0664 8.51083 74.2485 8.33431C74.4566 8.15779 74.7038 8.06953 74.9899 8.06953H78.0337V1.82822C78.0337 1.55083 78.1247 1.32387 78.3068 1.14735C78.515 0.970829 78.7491 0.882568 79.0092 0.882568H83.5359C83.822 0.882568 84.0562 0.970829 84.2383 1.14735C84.4204 1.32387 84.5114 1.55083 84.5114 1.82822V8.06953H89.3892C89.6754 8.06953 89.9095 8.15779 90.0917 8.33431C90.2738 8.51083 90.3648 8.73779 90.3648 9.01518V12.0791C90.3648 12.3565 90.2738 12.5834 90.0917 12.76C89.9095 12.9365 89.6754 13.0247 89.3892 13.0247H84.5114V19.7578C84.5114 20.6152 84.6805 21.2961 85.0187 21.8004C85.3569 22.3047 85.9292 22.5569 86.7357 22.5569H89.7405C90.0266 22.5569 90.2607 22.6452 90.4428 22.8217C90.625 22.9982 90.716 23.2252 90.716 23.5026V26.7934C90.716 27.0708 90.625 27.2978 90.4428 27.4743C90.2607 27.6508 90.0266 27.7391 89.7405 27.7391H86.1114ZM94.9225 27.7391C94.6363 27.7391 94.4022 27.6508 94.2201 27.4743C94.038 27.2978 93.9469 27.0708 93.9469 26.7934V9.01518C93.9469 8.763 94.038 8.54866 94.2201 8.37214C94.4022 8.1704 94.6363 8.06953 94.9225 8.06953H99.4101C99.6963 8.06953 99.9304 8.1704 100.113 8.37214C100.295 8.54866 100.386 8.763 100.386 9.01518V10.5282C101.088 9.74648 101.921 9.14127 102.883 8.71257C103.872 8.28387 104.977 8.06953 106.2 8.06953H107.917C108.177 8.06953 108.398 8.15779 108.58 8.33431C108.789 8.51083 108.893 8.73779 108.893 9.01518V12.9113C108.893 13.1634 108.789 13.3904 108.58 13.5921C108.398 13.7687 108.177 13.8569 107.917 13.8569H104.132C103.065 13.8569 102.233 14.1469 101.634 14.7269C101.062 15.2817 100.776 16.076 100.776 17.11V26.7934C100.776 27.0708 100.672 27.2978 100.464 27.4743C100.282 27.6508 100.047 27.7391 99.7613 27.7391H94.9225ZM120.88 28.1174C117.81 28.1174 115.365 27.3104 113.544 25.6965C111.723 24.0826 110.773 21.6869 110.695 18.5095C110.695 18.333 110.695 18.106 110.695 17.8287C110.695 17.5513 110.695 17.3369 110.695 17.1856C110.773 15.1934 111.228 13.4913 112.061 12.0791C112.919 10.6417 114.09 9.55735 115.573 8.82605C117.082 8.06953 118.838 7.69127 120.841 7.69127C123.13 7.69127 125.016 8.13257 126.499 9.01518C128.008 9.89779 129.14 11.0956 129.894 12.6087C130.649 14.1217 131.026 15.8491 131.026 17.7908V18.6987C131.026 18.976 130.922 19.203 130.714 19.3795C130.532 19.556 130.311 19.6443 130.05 19.6443H117.563C117.563 19.6695 117.563 19.7074 117.563 19.7578C117.563 19.8082 117.563 19.8587 117.563 19.9091C117.589 20.6404 117.719 21.3087 117.953 21.9139C118.188 22.5191 118.552 22.9982 119.046 23.3513C119.54 23.7043 120.139 23.8808 120.841 23.8808C121.361 23.8808 121.791 23.8052 122.129 23.6539C122.493 23.4774 122.792 23.2882 123.026 23.0865C123.26 22.8595 123.443 22.6704 123.573 22.5191C123.807 22.2669 123.989 22.1156 124.119 22.0652C124.275 21.9895 124.509 21.9517 124.821 21.9517H129.66C129.92 21.9517 130.129 22.0274 130.285 22.1787C130.467 22.3047 130.545 22.4939 130.519 22.746C130.493 23.1747 130.272 23.6917 129.855 24.2969C129.439 24.9021 128.828 25.5074 128.021 26.1126C127.241 26.6926 126.252 27.1717 125.055 27.55C123.859 27.9282 122.467 28.1174 120.88 28.1174ZM117.563 15.8995H124.158V15.8239C124.158 15.0169 124.028 14.3108 123.768 13.7056C123.534 13.1004 123.156 12.6339 122.636 12.306C122.142 11.9782 121.543 11.8143 120.841 11.8143C120.139 11.8143 119.54 11.9782 119.046 12.306C118.578 12.6339 118.214 13.1004 117.953 13.7056C117.693 14.3108 117.563 15.0169 117.563 15.8239V15.8995ZM144.049 28.1174C140.979 28.1174 138.534 27.3104 136.713 25.6965C134.892 24.0826 133.942 21.6869 133.864 18.5095C133.864 18.333 133.864 18.106 133.864 17.8287C133.864 17.5513 133.864 17.3369 133.864 17.1856C133.942 15.1934 134.398 13.4913 135.23 12.0791C136.089 10.6417 137.259 9.55735 138.742 8.82605C140.251 8.06953 142.007 7.69127 144.01 7.69127C146.299 7.69127 148.186 8.13257 149.668 9.01518C151.177 9.89779 152.309 11.0956 153.063 12.6087C153.818 14.1217 154.195 15.8491 154.195 17.7908V18.6987C154.195 18.976 154.091 19.203 153.883 19.3795C153.701 19.556 153.48 19.6443 153.219 19.6443H140.732C140.732 19.6695 140.732 19.7074 140.732 19.7578C140.732 19.8082 140.732 19.8587 140.732 19.9091C140.758 20.6404 140.888 21.3087 141.122 21.9139C141.357 22.5191 141.721 22.9982 142.215 23.3513C142.709 23.7043 143.308 23.8808 144.01 23.8808C144.53 23.8808 144.96 23.8052 145.298 23.6539C145.662 23.4774 145.961 23.2882 146.195 23.0865C146.43 22.8595 146.612 22.6704 146.742 22.5191C146.976 22.2669 147.158 22.1156 147.288 22.0652C147.444 21.9895 147.678 21.9517 147.99 21.9517H152.829C153.089 21.9517 153.298 22.0274 153.454 22.1787C153.636 22.3047 153.714 22.4939 153.688 22.746C153.662 23.1747 153.441 23.6917 153.024 24.2969C152.608 24.9021 151.997 25.5074 151.19 26.1126C150.41 26.6926 149.421 27.1717 148.225 27.55C147.028 27.9282 145.636 28.1174 144.049 28.1174ZM140.732 15.8995H147.327V15.8239C147.327 15.0169 147.197 14.3108 146.937 13.7056C146.703 13.1004 146.326 12.6339 145.805 12.306C145.311 11.9782 144.713 11.8143 144.01 11.8143C143.308 11.8143 142.709 11.9782 142.215 12.306C141.747 12.6339 141.383 13.1004 141.122 13.7056C140.862 14.3108 140.732 15.0169 140.732 15.8239V15.8995ZM168.196 27.7391C166.531 27.7391 165.088 27.4869 163.865 26.9826C162.668 26.453 161.745 25.646 161.094 24.5617C160.444 23.4521 160.119 22.0274 160.119 20.2874V13.0247H157.075C156.789 13.0247 156.542 12.9365 156.333 12.76C156.151 12.5834 156.06 12.3565 156.06 12.0791V9.01518C156.06 8.73779 156.151 8.51083 156.333 8.33431C156.542 8.15779 156.789 8.06953 157.075 8.06953H160.119V1.82822C160.119 1.55083 160.21 1.32387 160.392 1.14735C160.6 0.970829 160.834 0.882568 161.094 0.882568H165.621C165.907 0.882568 166.141 0.970829 166.323 1.14735C166.505 1.32387 166.596 1.55083 166.596 1.82822V8.06953H171.474C171.76 8.06953 171.995 8.15779 172.177 8.33431C172.359 8.51083 172.45 8.73779 172.45 9.01518V12.0791C172.45 12.3565 172.359 12.5834 172.177 12.76C171.995 12.9365 171.76 13.0247 171.474 13.0247H166.596V19.7578C166.596 20.6152 166.766 21.2961 167.104 21.8004C167.442 22.3047 168.014 22.5569 168.821 22.5569H171.825C172.112 22.5569 172.346 22.6452 172.528 22.8217C172.71 22.9982 172.801 23.2252 172.801 23.5026V26.7934C172.801 27.0708 172.71 27.2978 172.528 27.4743C172.346 27.6508 172.112 27.7391 171.825 27.7391H168.196Z" fill="white"/>
</svg>
